STARTFONT 2.1
COMMENT CVS:Version $Id 1.5
COMMENT
COMMENT (C) CENA/J.L. Vinot, 2002, CENA (Centre d'Etudes de la Navigation Aťrienne)
COMMENT This software is free software; you can redistribute it and/or modify it 
COMMENT under the terms of the GNU Lesser General Public License as published by the Free Software Foundation: 
COMMENT either version 2 of the License, or (at your option) any later version.
COMMENT 
COMMENT This software is distributed in the hope that it will be useful, but WITHOUT ANY WARRANTY; 
COMMENT without even the implied warranty of MERCHANTABILITY or FITNESS FOR A PARTICULAR PURPOSE.  
COMMENT See the GNU Lesser General Public License for more details.
COMMENT 
COMMENT You should have received a copy of the GNU Lesser General Public License along with this software; 
COMMENT if not, write to the Free Software Foundation, Inc., 59 Temple Place - Suite 330, Boston, MA  02111-1307, USA.
COMMENT Please refer to http://www.gnu.org/copyleft/gpl.html
COMMENT 
COMMENT This font has been originally designed by CENA/France for the specific needs of Air Traffic Control. 
COMMENT For example, it must offer good legibility and avoid any confusion between character shapes. 
COMMENT CENA would like to preserve its qualities. If you have any specific need, you can modify this font, 
COMMENT but we would like you to change its name to avoid any confusion between your new font and the original one designed by CENA.
COMMENT Note however, that as implied in the LGPL licence, you must credit CENA for the original work. 
COMMENT Finally, CENA would appreciate it if you send back any enhancement or extension made to the original work. 
COMMENT This statement must be fully included with any further distribution of the font.
COMMENT 
COMMENT to contact us: email to:  pii-contact@cena.fr
COMMENT write to: CENA, 7 avenue Edouard Belin, 31400 Toulouse, France 
FONT -CenaPii-Bleriot Radar-Medium-R-Normal--10-100-75-75-P-74-ISO8859-15
SIZE 10 72 72

STARTCHAR gcid14
ENCODING 20
SWIDTH 800 0
DWIDTH 8 0
BBX 6 2 1 3
BITMAP
FC
FC
ENDCHAR
STARTCHAR gcid15
ENCODING 21
SWIDTH 1000 0
DWIDTH 10 0
BBX 8 8 1 0
BITMAP
40
E0
71
3B
1F
0F
1F
3F
ENDCHAR
STARTCHAR gcid16
ENCODING 22
SWIDTH 1000 0
DWIDTH 10 0
BBX 8 8 1 0
BITMAP
3F
1F
0F
1F
3B
71
E0
40
ENDCHAR
STARTCHAR space
ENCODING 32
SWIDTH 700 0
DWIDTH 7 0
BBX 0 0 0 0
BITMAP
ENDCHAR
STARTCHAR exclam
ENCODING 33
SWIDTH 700 0
DWIDTH 7 0
BBX 2 9 2 0
BITMAP
C0
C0
C0
C0
C0
C0
00
C0
C0
ENDCHAR
STARTCHAR quotedbl
ENCODING 34
SWIDTH 400 0
DWIDTH 4 0
BBX 3 2 1 7
BITMAP
A0
A0
ENDCHAR
STARTCHAR numbersign
ENCODING 35
SWIDTH 700 0
DWIDTH 7 0
BBX 5 9 1 0
BITMAP
50
50
F8
F8
50
F8
F8
50
50
ENDCHAR
STARTCHAR dollar
ENCODING 36
SWIDTH 700 0
DWIDTH 7 0
BBX 5 10 1 -1
BITMAP
20
78
A8
E0
F0
78
38
A8
F0
20
ENDCHAR
STARTCHAR percent
ENCODING 37
SWIDTH 800 0
DWIDTH 8 0
BBX 7 8 1 0
BITMAP
E4
AC
E8
18
30
2E
6A
4E
ENDCHAR
STARTCHAR ampersand
ENCODING 38
SWIDTH 800 0
DWIDTH 8 0
BBX 8 8 1 0
BITMAP
38
6C
6C
38
79
CE
CE
7B
ENDCHAR
STARTCHAR quotesingle
ENCODING 39
SWIDTH 300 0
DWIDTH 3 0
BBX 1 2 1 6
BITMAP
80
80
ENDCHAR
STARTCHAR parenleft
ENCODING 40
SWIDTH 700 0
DWIDTH 7 0
BBX 4 11 1 -2
BITMAP
30
60
40
C0
C0
C0
C0
C0
40
60
30
ENDCHAR
STARTCHAR parenright
ENCODING 41
SWIDTH 700 0
DWIDTH 7 0
BBX 4 11 1 -2
BITMAP
C0
60
20
30
30
30
30
30
20
60
C0
ENDCHAR
STARTCHAR asterisk
ENCODING 42
SWIDTH 700 0
DWIDTH 7 0
BBX 5 5 1 3
BITMAP
50
20
F8
20
50
ENDCHAR
STARTCHAR plus
ENCODING 43
SWIDTH 700 0
DWIDTH 7 0
BBX 6 5 1 0
BITMAP
30
30
FC
30
30
ENDCHAR
STARTCHAR comma
ENCODING 44
SWIDTH 500 0
DWIDTH 5 0
BBX 2 3 1 -1
BITMAP
C0
C0
80
ENDCHAR
STARTCHAR hyphen
ENCODING 45
SWIDTH 600 0
DWIDTH 6 0
BBX 4 1 1 2
BITMAP
F0
ENDCHAR
STARTCHAR period
ENCODING 46
SWIDTH 400 0
DWIDTH 4 0
BBX 2 2 1 0
BITMAP
C0
C0
ENDCHAR
STARTCHAR slash
ENCODING 47
SWIDTH 700 0
DWIDTH 7 0
BBX 7 10 0 -1
BITMAP
06
0C
0C
18
18
30
30
60
60
C0
ENDCHAR
STARTCHAR zero
ENCODING 48
SWIDTH 900 0
DWIDTH 9 0
BBX 8 8 1 0
BITMAP
3C
66
CB
CB
DB
D3
66
3C
ENDCHAR
STARTCHAR one
ENCODING 49
SWIDTH 800 0
DWIDTH 8 0
BBX 6 8 1 0
BITMAP
1C
3C
6C
CC
0C
0C
0C
0C
ENDCHAR
STARTCHAR two
ENCODING 50
SWIDTH 800 0
DWIDTH 8 0
BBX 7 8 1 0
BITMAP
78
CC
8C
0C
18
30
60
FE
ENDCHAR
STARTCHAR three
ENCODING 51
SWIDTH 800 0
DWIDTH 8 0
BBX 7 8 1 0
BITMAP
7E
0C
18
3C
0E
06
C6
7C
ENDCHAR
STARTCHAR four
ENCODING 52
SWIDTH 800 0
DWIDTH 8 0
BBX 7 8 1 0
BITMAP
30
30
60
6C
CC
FE
0C
0C
ENDCHAR
STARTCHAR five
ENCODING 53
SWIDTH 800 0
DWIDTH 8 0
BBX 7 8 1 0
BITMAP
3E
30
60
7C
0E
06
C6
7C
ENDCHAR
STARTCHAR six
ENCODING 54
SWIDTH 800 0
DWIDTH 8 0
BBX 7 8 1 0
BITMAP
18
30
60
7C
E6
C6
CE
7C
ENDCHAR
STARTCHAR seven
ENCODING 55
SWIDTH 800 0
DWIDTH 8 0
BBX 7 8 1 0
BITMAP
FE
0C
0C
18
18
18
30
30
ENDCHAR
STARTCHAR eight
ENCODING 56
SWIDTH 800 0
DWIDTH 8 0
BBX 7 8 1 0
BITMAP
78
CC
CC
78
7C
CE
C6
7C
ENDCHAR
STARTCHAR nine
ENCODING 57
SWIDTH 800 0
DWIDTH 8 0
BBX 7 8 1 0
BITMAP
7C
E6
C6
CE
7C
0C
18
30
ENDCHAR
STARTCHAR colon
ENCODING 58
SWIDTH 600 0
DWIDTH 6 0
BBX 2 6 2 0
BITMAP
C0
C0
00
00
C0
C0
ENDCHAR
STARTCHAR semicolon
ENCODING 59
SWIDTH 600 0
DWIDTH 6 0
BBX 2 7 2 -1
BITMAP
C0
C0
00
00
C0
C0
80
ENDCHAR
STARTCHAR less
ENCODING 60
SWIDTH 600 0
DWIDTH 6 0
BBX 4 6 1 0
BITMAP
30
60
C0
C0
60
30
ENDCHAR
STARTCHAR equal
ENCODING 61
SWIDTH 500 0
DWIDTH 5 0
BBX 4 4 1 1
BITMAP
F0
00
00
F0
ENDCHAR
STARTCHAR greater
ENCODING 62
SWIDTH 600 0
DWIDTH 6 0
BBX 4 6 1 0
BITMAP
C0
60
30
30
60
C0
ENDCHAR
STARTCHAR question
ENCODING 63
SWIDTH 800 0
DWIDTH 8 0
BBX 6 9 1 0
BITMAP
78
CC
0C
18
30
30
00
30
30
ENDCHAR
STARTCHAR at
ENCODING 64
SWIDTH 1100 0
DWIDTH 11 0
BBX 10 10 1 -1
BITMAP
1E00
6180
4080
9E40
B640
B640
B6C0
9F80
4000
3F00
ENDCHAR
STARTCHAR A
ENCODING 65
SWIDTH 800 0
DWIDTH 8 0
BBX 8 8 0 0
BITMAP
18
18
3C
2C
66
7E
43
C3
ENDCHAR
STARTCHAR B
ENCODING 66
SWIDTH 800 0
DWIDTH 8 0
BBX 7 8 1 0
BITMAP
F8
CC
CC
F8
CC
C6
C6
FC
ENDCHAR
STARTCHAR C
ENCODING 67
SWIDTH 800 0
DWIDTH 8 0
BBX 7 8 1 0
BITMAP
3C
66
C0
C0
C0
C0
66
3C
ENDCHAR
STARTCHAR D
ENCODING 68
SWIDTH 800 0
DWIDTH 8 0
BBX 7 8 1 0
BITMAP
F8
CC
C6
C6
C6
C6
CC
F8
ENDCHAR
STARTCHAR E
ENCODING 69
SWIDTH 700 0
DWIDTH 7 0
BBX 6 8 1 0
BITMAP
F8
C0
C0
F8
C0
C0
C0
FC
ENDCHAR
STARTCHAR F
ENCODING 70
SWIDTH 700 0
DWIDTH 7 0
BBX 6 8 1 0
BITMAP
FC
C0
C0
F8
C0
C0
C0
C0
ENDCHAR
STARTCHAR G
ENCODING 71
SWIDTH 800 0
DWIDTH 8 0
BBX 7 8 0 0
BITMAP
3C
66
C0
C0
CE
C6
66
3E
ENDCHAR
STARTCHAR H
ENCODING 72
SWIDTH 800 0
DWIDTH 8 0
BBX 7 8 1 0
BITMAP
C6
C6
C6
FE
C6
C6
C6
C6
ENDCHAR
STARTCHAR I
ENCODING 73
SWIDTH 500 0
DWIDTH 5 0
BBX 2 8 2 0
BITMAP
C0
C0
C0
C0
C0
C0
C0
C0
ENDCHAR
STARTCHAR J
ENCODING 74
SWIDTH 600 0
DWIDTH 6 0
BBX 5 8 0 0
BITMAP
18
18
18
18
18
18
D8
70
ENDCHAR
STARTCHAR K
ENCODING 75
SWIDTH 800 0
DWIDTH 8 0
BBX 7 8 1 0
BITMAP
CC
D8
F0
E0
F0
D8
CC
C6
ENDCHAR
STARTCHAR L
ENCODING 76
SWIDTH 700 0
DWIDTH 7 0
BBX 5 8 1 0
BITMAP
C0
C0
C0
C0
C0
C0
C0
F8
ENDCHAR
STARTCHAR M
ENCODING 77
SWIDTH 1100 0
DWIDTH 11 0
BBX 9 8 1 0
BITMAP
C180
C180
E380
E380
F780
D580
DD80
C980
ENDCHAR
STARTCHAR N
ENCODING 78
SWIDTH 900 0
DWIDTH 9 0
BBX 7 8 1 0
BITMAP
C6
C6
E6
F6
DE
CE
C6
C6
ENDCHAR
STARTCHAR O
ENCODING 79
SWIDTH 1000 0
DWIDTH 10 0
BBX 8 8 1 0
BITMAP
3C
66
C3
C3
C3
C3
66
3C
ENDCHAR
STARTCHAR P
ENCODING 80
SWIDTH 700 0
DWIDTH 7 0
BBX 6 8 1 0
BITMAP
F8
CC
CC
CC
F8
C0
C0
C0
ENDCHAR
STARTCHAR Q
ENCODING 81
SWIDTH 1000 0
DWIDTH 10 0
BBX 9 8 1 0
BITMAP
3C00
6600
C300
C300
DB00
EE00
6700
3D80
ENDCHAR
STARTCHAR R
ENCODING 82
SWIDTH 800 0
DWIDTH 8 0
BBX 7 8 1 0
BITMAP
F8
CC
CC
CC
F8
D8
CC
C6
ENDCHAR
STARTCHAR S
ENCODING 83
SWIDTH 700 0
DWIDTH 7 0
BBX 6 8 1 0
BITMAP
78
CC
E0
78
1C
0C
CC
78
ENDCHAR
STARTCHAR T
ENCODING 84
SWIDTH 800 0
DWIDTH 8 0
BBX 8 8 0 0
BITMAP
FF
18
18
18
18
18
18
18
ENDCHAR
STARTCHAR U
ENCODING 85
SWIDTH 900 0
DWIDTH 9 0
BBX 7 8 1 0
BITMAP
C6
C6
C6
C6
C6
C6
C6
7C
ENDCHAR
STARTCHAR V
ENCODING 86
SWIDTH 800 0
DWIDTH 8 0
BBX 8 8 0 0
BITMAP
C3
C2
66
64
6C
38
38
10
ENDCHAR
STARTCHAR W
ENCODING 87
SWIDTH 1200 0
DWIDTH 12 0
BBX 12 8 0 0
BITMAP
C630
C620
CF20
6B60
6B40
79C0
3180
3180
ENDCHAR
STARTCHAR X
ENCODING 88
SWIDTH 800 0
DWIDTH 8 0
BBX 7 8 1 0
BITMAP
C6
E6
6C
38
38
6C
CE
C6
ENDCHAR
STARTCHAR Y
ENCODING 89
SWIDTH 800 0
DWIDTH 8 0
BBX 8 8 0 0
BITMAP
E3
66
34
3C
18
18
18
18
ENDCHAR
STARTCHAR Z
ENCODING 90
SWIDTH 800 0
DWIDTH 8 0
BBX 6 8 1 0
BITMAP
FC
0C
18
38
70
60
C0
FC
ENDCHAR
STARTCHAR bracketleft
ENCODING 91
SWIDTH 700 0
DWIDTH 7 0
BBX 4 11 2 -2
BITMAP
F0
C0
C0
C0
C0
C0
C0
C0
C0
C0
F0
ENDCHAR
STARTCHAR backslash
ENCODING 92
SWIDTH 700 0
DWIDTH 7 0
BBX 7 10 0 -1
BITMAP
C0
60
60
30
30
18
18
0C
0C
06
ENDCHAR
STARTCHAR bracketright
ENCODING 93
SWIDTH 700 0
DWIDTH 7 0
BBX 4 11 1 -2
BITMAP
F0
30
30
30
30
30
30
30
30
30
F0
ENDCHAR
STARTCHAR asciicircum
ENCODING 94
SWIDTH 700 0
DWIDTH 7 0
BBX 6 3 1 6
BITMAP
30
78
CC
ENDCHAR
STARTCHAR underscore
ENCODING 95
SWIDTH 700 0
DWIDTH 7 0
BBX 7 1 0 -2
BITMAP
FE
ENDCHAR
STARTCHAR a
ENCODING 97
SWIDTH 700 0
DWIDTH 7 0
BBX 6 6 1 0
BITMAP
78
0C
7C
CC
CC
7C
ENDCHAR
STARTCHAR b
ENCODING 98
SWIDTH 700 0
DWIDTH 7 0
BBX 6 8 1 0
BITMAP
C0
C0
D8
EC
CC
CC
CC
F8
ENDCHAR
STARTCHAR c
ENCODING 99
SWIDTH 700 0
DWIDTH 7 0
BBX 6 6 1 0
BITMAP
78
CC
C0
C0
CC
78
ENDCHAR
STARTCHAR d
ENCODING 100
SWIDTH 700 0
DWIDTH 7 0
BBX 6 8 1 0
BITMAP
0C
0C
6C
DC
CC
CC
CC
7C
ENDCHAR
STARTCHAR e
ENCODING 101
SWIDTH 800 0
DWIDTH 8 0
BBX 6 6 1 0
BITMAP
78
CC
FC
C0
CC
78
ENDCHAR
STARTCHAR f
ENCODING 102
SWIDTH 700 0
DWIDTH 7 0
BBX 7 8 0 0
BITMAP
1C
36
30
FC
30
30
30
30
ENDCHAR
STARTCHAR g
ENCODING 103
SWIDTH 800 0
DWIDTH 8 0
BBX 6 8 1 -2
BITMAP
7C
CC
CC
CC
DC
6C
0C
78
ENDCHAR
STARTCHAR h
ENCODING 104
SWIDTH 800 0
DWIDTH 8 0
BBX 6 8 1 0
BITMAP
C0
C0
D8
EC
CC
CC
CC
CC
ENDCHAR
STARTCHAR i
ENCODING 105
SWIDTH 500 0
DWIDTH 5 0
BBX 2 9 2 0
BITMAP
C0
C0
00
C0
C0
C0
C0
C0
C0
ENDCHAR
STARTCHAR j
ENCODING 106
SWIDTH 500 0
DWIDTH 5 0
BBX 4 11 0 -2
BITMAP
30
30
00
30
30
30
30
30
30
30
E0
ENDCHAR
STARTCHAR k
ENCODING 107
SWIDTH 700 0
DWIDTH 7 0
BBX 6 8 1 0
BITMAP
C0
C0
CC
D8
F0
F0
D8
CC
ENDCHAR
STARTCHAR l
ENCODING 108
SWIDTH 500 0
DWIDTH 5 0
BBX 4 8 1 0
BITMAP
C0
C0
C0
C0
C0
C0
C0
70
ENDCHAR
STARTCHAR m
ENCODING 109
SWIDTH 1200 0
DWIDTH 12 0
BBX 10 6 1 0
BITMAP
D980
EEC0
CCC0
CCC0
CCC0
CCC0
ENDCHAR
STARTCHAR n
ENCODING 110
SWIDTH 800 0
DWIDTH 8 0
BBX 6 6 1 0
BITMAP
D8
EC
CC
CC
CC
CC
ENDCHAR
STARTCHAR o
ENCODING 111
SWIDTH 800 0
DWIDTH 8 0
BBX 6 6 1 0
BITMAP
78
CC
CC
CC
CC
78
ENDCHAR
STARTCHAR p
ENCODING 112
SWIDTH 700 0
DWIDTH 7 0
BBX 6 8 1 -2
BITMAP
F8
CC
CC
CC
EC
D8
C0
C0
ENDCHAR
STARTCHAR q
ENCODING 113
SWIDTH 700 0
DWIDTH 7 0
BBX 6 8 1 -2
BITMAP
7C
CC
CC
CC
DC
6C
0C
0C
ENDCHAR
STARTCHAR r
ENCODING 114
SWIDTH 600 0
DWIDTH 6 0
BBX 5 6 1 0
BITMAP
D8
E8
C0
C0
C0
C0
ENDCHAR
STARTCHAR s
ENCODING 115
SWIDTH 700 0
DWIDTH 7 0
BBX 5 6 1 0
BITMAP
78
C0
F0
38
18
F0
ENDCHAR
STARTCHAR t
ENCODING 116
SWIDTH 600 0
DWIDTH 6 0
BBX 5 8 0 0
BITMAP
60
60
F8
60
60
60
60
38
ENDCHAR
STARTCHAR u
ENCODING 117
SWIDTH 800 0
DWIDTH 8 0
BBX 6 6 1 0
BITMAP
CC
CC
CC
CC
DC
6C
ENDCHAR
STARTCHAR v
ENCODING 118
SWIDTH 800 0
DWIDTH 8 0
BBX 7 6 1 0
BITMAP
C6
C4
6C
78
38
30
ENDCHAR
STARTCHAR w
ENCODING 119
SWIDTH 1300 0
DWIDTH 13 0
BBX 12 6 1 0
BITMAP
C630
C620
6F60
7B40
31C0
3180
ENDCHAR
STARTCHAR x
ENCODING 120
SWIDTH 800 0
DWIDTH 8 0
BBX 7 6 1 0
BITMAP
E6
6C
38
38
6C
CE
ENDCHAR
STARTCHAR y
ENCODING 121
SWIDTH 800 0
DWIDTH 8 0
BBX 7 8 1 -2
BITMAP
C6
C4
6C
68
38
30
30
60
ENDCHAR
STARTCHAR z
ENCODING 122
SWIDTH 700 0
DWIDTH 7 0
BBX 6 6 1 0
BITMAP
FC
18
30
60
C0
FC
ENDCHAR
STARTCHAR braceleft
ENCODING 123
SWIDTH 700 0
DWIDTH 7 0
BBX 4 11 1 -2
BITMAP
30
60
60
60
60
C0
60
60
60
60
30
ENDCHAR
STARTCHAR bar
ENCODING 124
SWIDTH 600 0
DWIDTH 6 0
BBX 2 11 2 -2
BITMAP
C0
C0
C0
C0
C0
C0
C0
C0
C0
C0
C0
ENDCHAR
STARTCHAR braceright
ENCODING 125
SWIDTH 700 0
DWIDTH 7 0
BBX 4 11 1 -2
BITMAP
C0
60
60
60
60
30
60
60
60
60
C0
ENDCHAR
STARTCHAR Euro
ENCODING 164
SWIDTH 800 0
DWIDTH 8 0
BBX 8 8 0 0
BITMAP
1E
33
60
FC
F8
60
33
1E
ENDCHAR
STARTCHAR degree
ENCODING 176
SWIDTH 500 0
DWIDTH 5 0
BBX 3 3 1 6
BITMAP
E0
A0
E0
ENDCHAR
STARTCHAR Agrave
ENCODING 192
SWIDTH 800 0
DWIDTH 8 0
BBX 8 11 0 0
BITMAP
20
10
00
18
18
3C
2C
66
7E
43
C3
ENDCHAR
STARTCHAR Acircumflex
ENCODING 194
SWIDTH 800 0
DWIDTH 8 0
BBX 8 11 0 0
BITMAP
18
24
00
18
18
3C
2C
66
7E
43
C3
ENDCHAR
STARTCHAR Ccedilla
ENCODING 199
SWIDTH 800 0
DWIDTH 8 0
BBX 7 10 1 -2
BITMAP
3C
66
C0
C0
C0
C0
66
3C
08
38
ENDCHAR
STARTCHAR Egrave
ENCODING 200
SWIDTH 700 0
DWIDTH 7 0
BBX 6 11 1 0
BITMAP
40
20
00
F8
C0
C0
F8
C0
C0
C0
FC
ENDCHAR
STARTCHAR Eacute
ENCODING 201
SWIDTH 700 0
DWIDTH 7 0
BBX 6 11 1 0
BITMAP
10
20
00
F8
C0
C0
F8
C0
C0
C0
FC
ENDCHAR
STARTCHAR Ecircumflex
ENCODING 202
SWIDTH 700 0
DWIDTH 7 0
BBX 6 11 1 0
BITMAP
30
48
00
F8
C0
C0
F8
C0
C0
C0
FC
ENDCHAR
STARTCHAR Edieresis
ENCODING 203
SWIDTH 700 0
DWIDTH 7 0
BBX 6 10 1 0
BITMAP
50
00
F8
C0
C0
F8
C0
C0
C0
FC
ENDCHAR
STARTCHAR Icircumflex
ENCODING 206
SWIDTH 500 0
DWIDTH 5 0
BBX 4 11 1 0
BITMAP
60
90
00
60
60
60
60
60
60
60
60
ENDCHAR
STARTCHAR Idieresis
ENCODING 207
SWIDTH 500 0
DWIDTH 5 0
BBX 4 10 1 0
BITMAP
90
00
60
60
60
60
60
60
60
60
ENDCHAR
STARTCHAR Ocircumflex
ENCODING 212
SWIDTH 900 0
DWIDTH 9 0
BBX 8 11 1 0
BITMAP
18
24
00
3C
66
C3
C3
C3
C3
66
3C
ENDCHAR
STARTCHAR Ugrave
ENCODING 217
SWIDTH 900 0
DWIDTH 9 0
BBX 7 11 1 0
BITMAP
20
10
00
C6
C6
C6
C6
C6
C6
C6
7C
ENDCHAR
STARTCHAR Ucircumflex
ENCODING 219
SWIDTH 900 0
DWIDTH 9 0
BBX 7 11 1 0
BITMAP
30
48
00
C6
C6
C6
C6
C6
C6
C6
7C
ENDCHAR
STARTCHAR Udieresis
ENCODING 220
SWIDTH 900 0
DWIDTH 9 0
BBX 7 10 1 0
BITMAP
48
00
C6
C6
C6
C6
C6
C6
C6
7C
ENDCHAR
STARTCHAR agrave
ENCODING 224
SWIDTH 700 0
DWIDTH 7 0
BBX 6 9 1 0
BITMAP
20
10
00
78
0C
7C
CC
CC
7C
ENDCHAR
STARTCHAR acircumflex
ENCODING 226
SWIDTH 700 0
DWIDTH 7 0
BBX 6 9 1 0
BITMAP
30
48
00
78
0C
7C
CC
CC
7C
ENDCHAR
STARTCHAR ccedilla
ENCODING 231
SWIDTH 700 0
DWIDTH 7 0
BBX 6 8 1 -2
BITMAP
78
CC
C0
C0
CC
78
10
70
ENDCHAR
STARTCHAR egrave
ENCODING 232
SWIDTH 800 0
DWIDTH 8 0
BBX 6 9 1 0
BITMAP
20
10
00
78
CC
FC
C0
CC
78
ENDCHAR
STARTCHAR eacute
ENCODING 233
SWIDTH 800 0
DWIDTH 8 0
BBX 6 9 1 0
BITMAP
10
20
00
78
CC
FC
C0
CC
78
ENDCHAR
STARTCHAR ecircumflex
ENCODING 234
SWIDTH 800 0
DWIDTH 8 0
BBX 6 9 1 0
BITMAP
30
48
00
78
CC
FC
C0
CC
78
ENDCHAR
STARTCHAR edieresis
ENCODING 235
SWIDTH 800 0
DWIDTH 8 0
BBX 6 8 1 0
BITMAP
50
00
78
CC
FC
C0
CC
78
ENDCHAR
STARTCHAR icircumflex
ENCODING 238
SWIDTH 500 0
DWIDTH 5 0
BBX 4 9 1 0
BITMAP
60
90
00
60
60
60
60
60
60
ENDCHAR
STARTCHAR idieresis
ENCODING 239
SWIDTH 500 0
DWIDTH 5 0
BBX 4 8 1 0
BITMAP
90
00
60
60
60
60
60
60
ENDCHAR
STARTCHAR ocircumflex
ENCODING 244
SWIDTH 800 0
DWIDTH 8 0
BBX 6 9 1 0
BITMAP
30
58
00
78
CC
CC
CC
CC
78
ENDCHAR
STARTCHAR ugrave
ENCODING 249
SWIDTH 800 0
DWIDTH 8 0
BBX 6 9 1 0
BITMAP
20
10
00
CC
CC
CC
CC
DC
6C
ENDCHAR
STARTCHAR ucircumflex
ENCODING 251
SWIDTH 800 0
DWIDTH 8 0
BBX 6 9 1 0
BITMAP
30
58
00
CC
CC
CC
CC
DC
6C
ENDCHAR
STARTCHAR udieresis
ENCODING 252
SWIDTH 800 0
DWIDTH 8 0
BBX 6 8 1 0
BITMAP
48
00
CC
CC
CC
CC
DC
6C
ENDCHAR
ENDFONT
